HIERARCHY
ROOT Hips
{
	OFFSET -0.179506 -22.333345 2.821913
	CHANNELS 6 Xposition Yposition Zposition Zrotation Yrotation Xrotation 
	JOINT LeftUpLeg
	{
		OFFSET 6.951974 -9.140623 -0.681533
		CHANNELS 3 Zrotation Yrotation Xrotation
		JOINT LeftLeg
		{
			OFFSET 3.427654 -37.519855 -0.449580
			CHANNELS 3 Zrotation Yrotation Xrotation
			JOINT LeftFoot
			{
				OFFSET -1.359570 -39.796059 -4.369333
				CHANNELS 3 Zrotation Yrotation Xrotation
				JOINT LeftToe
				{
					OFFSET 2.635814 -5.579078 11.928840
					CHANNELS 3 Zrotation Yrotation Xrotation
					End Site
					{
						OFFSET 0.000000 0.000000 0.000000
					}
				}
			}
		}
	}
	JOINT RightUpLeg
	{
		OFFSET -6.767048 -9.052170 -0.431982
		CHANNELS 3 Zrotation Yrotation Xrotation
		JOINT RightLeg
		{
			OFFSET -3.829005 -38.256897 -0.885003
			CHANNELS 3 Zrotation Yrotation Xrotation
			JOINT RightFoot
			{
				OFFSET 1.577377 -39.841461 -4.231180
				CHANNELS 3 Zrotation Yrotation Xrotation
				JOINT RightToe
				{
					OFFSET -2.537174 -4.814398 12.334795
					CHANNELS 3 Zrotation Yrotation Xrotation
					End Site
					{
						OFFSET 0.000000 0.000000 0.000000
					}
				}
			}
		}
	}
	JOINT Spine
	{
		OFFSET -0.253288 10.896323 -2.669631
		CHANNELS 3 Zrotation Yrotation Xrotation
		JOINT Spine1
		{
			OFFSET 0.548704 13.518043 0.109247
			CHANNELS 3 Zrotation Yrotation Xrotation
			JOINT Spine2
			{
				OFFSET 0.145701 5.292222 2.542457
				CHANNELS 3 Zrotation Yrotation Xrotation
				JOINT Neck
				{
					OFFSET -0.277840 21.387037 -4.285703
					CHANNELS 3 Zrotation Yrotation Xrotation
					JOINT Head
					{
						OFFSET 0.515184 6.496960 5.134897
						CHANNELS 3 Zrotation Yrotation Xrotation
						End Site
						{
							OFFSET 0.000000 0.000000 0.000000
						}
					}
				}
				JOINT LeftShoulder
				{
					OFFSET 7.884473 12.174932 -3.408961
					CHANNELS 3 Zrotation Yrotation Xrotation
					JOINT LeftArm
					{
						OFFSET 9.097692 3.046888 -0.886815
						CHANNELS 3 Zrotation Yrotation Xrotation
						JOINT LeftForeArm
						{
							OFFSET 25.961220 -1.277207 -2.745643
							CHANNELS 3 Zrotation Yrotation Xrotation
							JOINT LeftHand
							{
								OFFSET 24.923361 0.898606 -0.117091
								CHANNELS 3 Zrotation Yrotation Xrotation
								End Site
								{
									OFFSET 0.000000 0.000000 0.000000
								}
							}
						}
					}
				}
				JOINT RightShoulder
				{
					OFFSET -8.175920 11.883285 -3.861528
					CHANNELS 3 Zrotation Yrotation Xrotation
					JOINT RightArm
					{
						OFFSET -9.601238 3.255117 -0.914307
						CHANNELS 3 Zrotation Yrotation Xrotation
						JOINT RightForeArm
						{
							OFFSET -25.374195 -1.332924 -2.140099
							CHANNELS 3 Zrotation Yrotation Xrotation
							JOINT RightHand
							{
								OFFSET -25.529810 0.777228 -0.555919
								CHANNELS 3 Zrotation Yrotation Xrotation
								End Site
								{
									OFFSET 0.000000 0.000000 0.000000
								}
							}
						}
					}
				}
			}
		}
	}
}
MOTION
Frames: 13
Frame Time: 0.033333
-41.171944 -257.517853 97.763000 176.352491 0.233818 90.239346 1.015549 3.804163 2.325818 2.973417 3.738056 -4.293139 -2.736388 12.836015 0.894279 nan nan nan -2.554982 -4.907382 0.096375 1.331229 -7.020728 -3.892521 7.094540 -8.933390 5.217414 nan nan nan -1.605171 1.904279 -0.491995 3.684994 -2.686606 3.953697 0.063078 -0.310640 -0.587188 1.635928 -1.276139 -0.466191 3.984867 -4.517529 -5.260374 -14.121212 5.666497 -1.412141 -70.620928 -7.997853 21.655019 3.382209 -23.302937 -7.063951 -9.120717 -17.140401 -18.583950 16.532419 -1.825755 -2.440291 64.378836 4.967800 15.276244 -6.075338 28.069022 -9.261869 5.063143 11.425759 -17.001253 
-41.163979 -257.520538 97.705246 176.375367 0.361985 90.316979 1.177617 3.869033 2.162843 3.026406 4.060381 -4.180454 -3.108907 12.402912 1.088313 nan nan nan -2.417376 -4.786208 -0.009344 1.032591 -7.117994 -3.827901 7.113305 -8.793289 5.423068 nan nan nan -1.286036 1.858284 -0.363725 3.476988 -2.591850 3.601292 0.095024 -0.390178 -0.314447 1.800547 -1.067195 -0.448943 3.898727 -4.759326 -5.467308 -13.882188 4.924396 -1.717742 -71.515625 -7.804898 22.143204 4.677443 -21.980799 -8.163685 -9.960351 -18.186140 -19.504995 15.791721 -1.589355 -2.788182 65.391561 4.627445 15.420781 -5.928187 26.928827 -10.113866 6.341595 11.291219 -19.435427 
-41.003105 -257.501465 97.624199 176.144382 0.540290 90.356351 1.605723 4.277878 2.169113 2.850409 4.130086 -4.220843 -3.576880 12.136818 1.111245 nan nan nan -2.334771 -5.107874 -0.537518 1.577669 -7.500369 -2.947508 7.530493 -8.312154 4.943258 nan nan nan -1.361690 1.859945 -0.326920 3.526288 -2.377136 3.275619 0.210171 -0.333573 0.046949 1.931108 -0.911842 -0.444697 4.018651 -4.946222 -5.526109 -13.523025 5.019185 -1.780983 -71.809461 -7.949284 22.203891 4.427118 -21.790983 -8.122878 -9.591714 -18.689490 -19.743245 15.653865 -1.590652 -2.725225 65.626121 4.863727 15.188703 -5.568853 26.761832 -10.117915 6.128821 11.853415 -19.906956 
-40.987766 -257.620911 97.702545 175.605504 0.775275 90.673011 1.839737 4.665874 1.677997 2.945316 4.743676 -3.949292 -4.305880 11.662731 1.070412 nan nan nan -2.286931 -6.709319 -0.610162 2.064207 -6.596880 -3.896932 8.191689 -7.370308 5.875138 nan nan nan -1.068472 2.321173 -0.557831 3.590103 -2.331379 3.623661 0.222617 -0.230072 -0.322820 1.877660 -0.736126 -0.341465 3.960820 -5.148369 -5.801036 -13.664771 4.914907 -1.887203 -71.949445 -7.909778 22.300635 3.570359 -21.327271 -9.154966 -6.777389 -20.066181 -21.463330 15.545808 -1.599574 -2.771162 65.443080 4.878223 14.870770 -4.951570 26.715063 -10.092621 4.711275 12.737835 -19.953839 
-40.973541 -257.560638 97.751053 175.713266 0.724006 90.444714 1.806318 4.747858 1.986083 2.990941 4.638590 -3.987483 -4.621793 11.549666 0.992504 nan nan nan -2.356731 -7.036232 -0.297007 1.984976 -6.423542 -3.889062 8.520382 -7.376437 5.832111 nan nan nan -0.999504 2.338328 -0.431811 3.541765 -2.379293 3.609375 0.227474 -0.227359 -0.243076 1.617449 -0.938861 -0.078846 4.009927 -5.139196 -5.989941 -13.909152 4.758853 -1.877473 -71.620501 -7.935800 22.115757 3.431930 -21.217533 -9.113018 -7.117328 -20.090800 -21.333812 15.413606 -1.605017 -2.831391 65.523802 4.751987 14.731819 -4.863995 26.546053 -9.897015 5.319332 12.414864 -19.934365 
-40.905056 -257.363556 97.782654 176.364997 0.522504 89.162385 1.696186 4.856326 3.597012 3.258114 3.976168 -4.279904 -6.114319 11.402693 0.741999 nan nan nan -2.291801 -5.865815 1.052712 1.142241 -7.317919 -3.145376 9.608381 -8.058554 4.465226 nan nan nan -1.415997 2.053177 1.043528 3.540119 -2.454331 3.377097 0.483414 -0.411984 -0.007517 1.364936 -1.213353 -0.322557 4.437964 -4.951019 -6.056764 -13.775862 3.923792 -1.988133 -71.395817 -7.613403 22.084372 3.046604 -21.118873 -8.960936 -6.248934 -21.266939 -22.548643 15.256263 -1.626085 -3.419807 66.081510 4.623391 14.346904 -5.184701 26.218301 -9.529130 5.377184 13.049343 -19.319639 
-40.904133 -257.396423 97.769432 176.272488 0.492398 89.264399 1.608808 4.788015 3.466702 3.312686 4.035044 -4.255617 -6.198462 11.427318 0.632257 nan nan nan -2.305857 -5.744908 0.814985 1.159893 -7.414891 -2.971941 9.600428 -8.000001 4.286111 nan nan nan -1.393497 2.102893 1.047176 3.510171 -2.373540 3.378385 0.483451 -0.399855 -0.089570 1.302893 -1.192263 -0.286643 4.517224 -4.928392 -5.990329 -13.862696 3.903281 -2.030484 -71.391695 -7.685808 22.032548 3.001347 -20.908463 -9.031797 -6.206819 -21.450634 -22.309114 15.309485 -1.653213 -3.398845 66.110647 4.767851 14.124655 -5.257017 26.099108 -9.796358 5.303743 13.606050 -18.783437 
-40.904697 -257.377625 97.764427 176.441508 0.518678 89.309373 1.622181 4.851163 3.391235 3.354340 3.806671 -4.253791 -6.263693 11.360279 0.642701 nan nan nan -2.291630 -5.830720 0.835165 1.215054 -7.503451 -3.033219 9.500204 -8.072797 4.265509 nan nan nan -1.273779 2.014756 0.955573 3.472511 -2.467238 3.476978 0.422637 -0.394106 -0.123261 1.297268 -1.166432 -0.256904 4.547883 -4.861590 -5.969695 -13.942236 3.906744 -1.965529 -71.370357 -7.776388 21.879985 2.986949 -20.753543 -9.101186 -6.295407 -21.333867 -22.093890 15.264434 -1.637046 -3.296939 66.225001 4.900765 13.870851 -5.223230 25.965840 -10.145186 5.270021 13.662386 -18.518164 
-40.882805 -257.310822 97.771553 176.683514 0.571302 89.254262 1.728580 4.903642 3.480737 3.333054 3.572090 -4.304760 -6.364826 11.286015 0.660170 nan nan nan -2.202971 -5.928871 1.116439 1.172716 -7.547526 -3.305937 9.475210 -8.170827 4.337664 nan nan nan -1.247203 1.962958 0.876285 3.508970 -2.588001 3.624732 0.420443 -0.421845 -0.157912 1.260486 -1.233714 -0.221783 4.583237 -4.877221 -5.948925 -13.986188 3.873478 -1.835472 -71.310874 -7.809671 21.787254 2.885762 -20.712277 -9.036591 -5.960420 -21.187883 -22.174407 15.260942 -1.596797 -3.183964 66.183460 4.938432 13.675144 -5.057891 25.942477 -10.274618 4.999228 13.740015 -18.390535 
-40.810349 -257.272308 97.781021 176.717465 0.653450 89.215248 1.939125 4.977786 3.560076 3.240563 3.501566 -4.335658 -6.458072 11.243964 0.675044 nan nan nan -2.001798 -5.900659 1.252096 1.056236 -7.564138 -3.438250 9.501728 -8.201618 4.393817 nan nan nan -1.352217 2.027622 0.834937 3.626609 -2.585551 3.754926 0.509494 -0.439646 -0.233004 1.223677 -1.255524 -0.104557 4.647354 -4.979849 -6.034257 -14.016368 3.748673 -1.719580 -71.217359 -7.818656 21.745410 2.776136 -20.782860 -9.065922 -5.491082 -21.193327 -22.305561 15.305545 -1.576159 -3.133740 66.042993 4.727268 13.537086 -5.139213 26.397597 -10.085900 4.413753 13.969462 -17.808172 
-40.842560 -257.286774 97.782516 176.769993 0.602253 89.338945 1.766662 4.757035 3.433481 3.369009 3.509926 -4.404371 -6.376702 11.443900 0.743346 nan nan nan -2.137397 -5.873588 1.083516 1.173097 -7.690290 -3.383855 9.493538 -8.200139 4.379202 nan nan nan -1.303032 2.039250 0.775722 3.623427 -2.619972 3.756386 0.445752 -0.445543 -0.312462 1.095164 -1.314681 -0.097912 4.738181 -4.934380 -6.014618 -14.106033 3.831696 -1.692206 -71.103589 -7.956849 21.723352 2.474689 -20.617345 -9.044906 -5.483387 -21.450747 -22.418727 15.388739 -1.681185 -3.071071 65.966171 4.626978 13.440473 -5.581131 26.951363 -9.836346 3.728329 14.475791 -16.436458 
-40.856998 -257.271362 97.779984 176.850451 0.574072 89.365121 1.691905 4.647910 3.408817 3.424386 3.496598 -4.426436 -6.369421 11.496771 0.782912 nan nan nan -2.236934 -5.936153 1.095186 1.264493 -7.730078 -3.412907 9.496799 -8.208922 4.368674 nan nan nan -1.233155 2.024670 0.755237 3.590230 -2.671034 3.769791 0.380481 -0.469867 -0.301695 1.033257 -1.289874 -0.022137 4.838753 -4.891779 -6.067268 -14.141876 3.962137 -1.755125 -71.046118 -8.024875 21.746639 2.313079 -20.455300 -8.925009 -5.768873 -21.641097 -22.463348 15.450320 -1.770369 -3.101908 65.952180 4.702303 13.430814 -5.621059 26.921934 -9.734407 3.910172 14.567340 -16.381804 
-40.851738 -257.251221 97.783897 176.890937 0.548112 89.340431 1.692534 4.656563 3.427340 3.389318 3.509062 -4.395848 -6.360186 11.457646 0.826222 nan nan nan -2.276422 -6.002366 1.175869 1.271064 -7.635127 -3.458755 9.518493 -8.217046 4.361596 nan nan nan -1.186705 2.031148 0.780318 3.535194 -2.669277 3.732716 0.337816 -0.490621 -0.214343 1.079801 -1.272069 -0.088435 4.799358 -4.862297 -6.003299 -14.087431 3.971750 -1.855140 -71.088291 -7.968137 21.798102 2.410903 -20.418798 -8.898368 -5.917377 -21.625862 -22.521821 15.424839 -1.830342 -3.292019 65.993722 4.659906 13.510511 -5.374094 26.680403 -9.789400 4.420932 14.302692 -16.984981 
